<svg width="126" height="28" viewBox="0 0 126 28" fill="none" xmlns="http://www.w3.org/2000/svg">
<path d="M0.278342 27V0.818181H9.12493C11.1789 0.818181 12.8579 1.18892 14.1619 1.9304C15.4744 2.66335 16.446 3.65625 17.0766 4.90909C17.7073 6.16193 18.0227 7.55966 18.0227 9.10227C18.0227 10.6449 17.7073 12.0469 17.0766 13.3082C16.4545 14.5696 15.4914 15.5753 14.1874 16.3253C12.8835 17.0668 11.213 17.4375 9.17607 17.4375H2.83516V14.625H9.0738C10.48 14.625 11.6093 14.3821 12.4616 13.8963C13.3139 13.4105 13.9318 12.7543 14.3153 11.9276C14.7073 11.0923 14.9033 10.1506 14.9033 9.10227C14.9033 8.05398 14.7073 7.11648 14.3153 6.28977C13.9318 5.46307 13.3096 4.81534 12.4488 4.34659C11.588 3.86932 10.446 3.63068 9.02266 3.63068H3.4488V27H0.278342ZM25.0179 0.818181V27H22.0008V0.818181H25.0179ZM35.6022 27.4602C34.3579 27.4602 33.2286 27.2259 32.2144 26.7571C31.2002 26.2798 30.3948 25.5938 29.7982 24.6989C29.2016 23.7955 28.9033 22.7045 28.9033 21.4261C28.9033 20.3011 29.1249 19.3892 29.5681 18.6903C30.0113 17.983 30.6036 17.429 31.3451 17.0284C32.0866 16.6278 32.9047 16.3295 33.7996 16.1335C34.703 15.929 35.6107 15.767 36.5226 15.6477C37.7158 15.4943 38.6832 15.3793 39.4246 15.3026C40.1746 15.2173 40.7201 15.0767 41.061 14.8807C41.4104 14.6847 41.5851 14.3437 41.5851 13.858V13.7557C41.5851 12.4943 41.24 11.5142 40.5496 10.8153C39.8678 10.1165 38.8323 9.76705 37.4431 9.76705C36.0028 9.76705 34.8735 10.0824 34.0553 10.7131C33.2371 11.3437 32.6618 12.017 32.3295 12.733L29.4658 11.7102C29.9772 10.517 30.659 9.58807 31.5113 8.9233C32.3721 8.25 33.3096 7.78125 34.3238 7.51705C35.3465 7.24432 36.3522 7.10795 37.3408 7.10795C37.9715 7.10795 38.6959 7.18466 39.5141 7.33807C40.3408 7.48295 41.1377 7.78551 41.9047 8.24574C42.6803 8.70597 43.3238 9.40057 43.8351 10.3295C44.3465 11.2585 44.6022 12.5028 44.6022 14.0625V27H41.5851V24.3409H41.4317C41.2272 24.767 40.8863 25.223 40.409 25.7088C39.9317 26.1946 39.2968 26.608 38.5042 26.9489C37.7116 27.2898 36.7442 27.4602 35.6022 27.4602ZM36.0624 24.75C37.2556 24.75 38.2613 24.5156 39.0795 24.0469C39.9062 23.5781 40.5283 22.973 40.9459 22.2315C41.3721 21.4901 41.5851 20.7102 41.5851 19.892V17.1307C41.4573 17.2841 41.1761 17.4247 40.7414 17.5526C40.3153 17.6719 39.8209 17.7784 39.2584 17.8722C38.7045 17.9574 38.1633 18.0341 37.6349 18.1023C37.115 18.1619 36.6931 18.2131 36.3692 18.2557C35.5851 18.358 34.8522 18.5241 34.1704 18.7543C33.4971 18.9759 32.9516 19.3125 32.534 19.7642C32.1249 20.2074 31.9204 20.8125 31.9204 21.5795C31.9204 22.6278 32.3082 23.4205 33.0837 23.9574C33.8678 24.4858 34.8607 24.75 36.0624 24.75ZM52.406 15.1875V27H49.3889V7.36364H52.3037V10.4318H52.5594C53.0196 9.43466 53.7185 8.63352 54.656 8.02841C55.5935 7.41477 56.8037 7.10795 58.2867 7.10795C59.6162 7.10795 60.7796 7.38068 61.7767 7.92614C62.7739 8.46307 63.5495 9.28125 64.1034 10.3807C64.6574 11.4716 64.9344 12.8523 64.9344 14.5227V27H61.9174V14.7273C61.9174 13.1847 61.5168 11.983 60.7156 11.1222C59.9145 10.2528 58.8151 9.81818 57.4174 9.81818C56.4543 9.81818 55.5935 10.027 54.835 10.4446C54.085 10.8622 53.4926 11.4716 53.058 12.2727C52.6233 13.0739 52.406 14.0455 52.406 15.1875ZM78.2673 7.36364V9.92045H68.0912V7.36364H78.2673ZM71.0571 2.65909H74.0741V21.375C74.0741 22.2273 74.1977 22.8665 74.4449 23.2926C74.7005 23.7102 75.0244 23.9915 75.4165 24.1364C75.817 24.2727 76.2389 24.3409 76.6821 24.3409C77.0145 24.3409 77.2872 24.3239 77.5003 24.2898C77.7133 24.2472 77.8838 24.2131 78.0116 24.1875L78.6253 26.8977C78.4207 26.9744 78.1352 27.0511 77.7687 27.1278C77.4023 27.2131 76.9378 27.2557 76.3753 27.2557C75.523 27.2557 74.6878 27.0724 73.8696 26.706C73.0599 26.3395 72.3866 25.7812 71.8497 25.0312C71.3213 24.2812 71.0571 23.3352 71.0571 22.1932V2.65909ZM84.2845 27.2045C83.6538 27.2045 83.1126 26.9787 82.6609 26.527C82.2092 26.0753 81.9834 25.5341 81.9834 24.9034C81.9834 24.2727 82.2092 23.7315 82.6609 23.2798C83.1126 22.8281 83.6538 22.6023 84.2845 22.6023C84.9152 22.6023 85.4564 22.8281 85.9081 23.2798C86.3598 23.7315 86.5857 24.2727 86.5857 24.9034C86.5857 25.321 86.4791 25.7045 86.2661 26.054C86.0615 26.4034 85.7845 26.6847 85.4351 26.8977C85.0942 27.1023 84.7107 27.2045 84.2845 27.2045ZM97.0581 27.4602C95.8138 27.4602 94.6845 27.2259 93.6703 26.7571C92.6561 26.2798 91.8507 25.5938 91.2542 24.6989C90.6576 23.7955 90.3593 22.7045 90.3593 21.4261C90.3593 20.3011 90.5809 19.3892 91.024 18.6903C91.4672 17.983 92.0595 17.429 92.801 17.0284C93.5425 16.6278 94.3607 16.3295 95.2556 16.1335C96.159 15.929 97.0667 15.767 97.9786 15.6477C99.1718 15.4943 100.139 15.3793 100.881 15.3026C101.631 15.2173 102.176 15.0767 102.517 14.8807C102.866 14.6847 103.041 14.3437 103.041 13.858V13.7557C103.041 12.4943 102.696 11.5142 102.006 10.8153C101.324 10.1165 100.288 9.76705 98.899 9.76705C97.4587 9.76705 96.3294 10.0824 95.5113 10.7131C94.6931 11.3437 94.1178 12.017 93.7854 12.733L90.9218 11.7102C91.4331 10.517 92.1149 9.58807 92.9672 8.9233C93.828 8.25 94.7655 7.78125 95.7797 7.51705C96.8024 7.24432 97.8081 7.10795 98.7968 7.10795C99.4274 7.10795 100.152 7.18466 100.97 7.33807C101.797 7.48295 102.594 7.78551 103.361 8.24574C104.136 8.70597 104.78 9.40057 105.291 10.3295C105.802 11.2585 106.058 12.5028 106.058 14.0625V27H103.041V24.3409H102.888C102.683 24.767 102.342 25.223 101.865 25.7088C101.388 26.1946 100.753 26.608 99.9601 26.9489C99.1675 27.2898 98.2002 27.4602 97.0581 27.4602ZM97.5184 24.75C98.7115 24.75 99.7172 24.5156 100.535 24.0469C101.362 23.5781 101.984 22.973 102.402 22.2315C102.828 21.4901 103.041 20.7102 103.041 19.892V17.1307C102.913 17.2841 102.632 17.4247 102.197 17.5526C101.771 17.6719 101.277 17.7784 100.714 17.8722C100.16 17.9574 99.6192 18.0341 99.0908 18.1023C98.5709 18.1619 98.149 18.2131 97.8252 18.2557C97.0411 18.358 96.3081 18.5241 95.6263 18.7543C94.953 18.9759 94.4076 19.3125 93.9899 19.7642C93.5809 20.2074 93.3763 20.8125 93.3763 21.5795C93.3763 22.6278 93.7641 23.4205 94.5397 23.9574C95.3238 24.4858 96.3167 24.75 97.5184 24.75ZM124.754 11.7614L122.044 12.5284C121.873 12.0767 121.622 11.6378 121.289 11.2116C120.966 10.777 120.522 10.419 119.96 10.1378C119.397 9.85653 118.677 9.71591 117.799 9.71591C116.598 9.71591 115.596 9.9929 114.795 10.5469C114.003 11.0923 113.606 11.7869 113.606 12.6307C113.606 13.3807 113.879 13.973 114.424 14.4077C114.97 14.8423 115.822 15.2045 116.981 15.4943L119.896 16.2102C121.652 16.6364 122.96 17.2884 123.821 18.1662C124.682 19.0355 125.112 20.1562 125.112 21.5284C125.112 22.6534 124.788 23.6591 124.14 24.5455C123.501 25.4318 122.606 26.1307 121.456 26.642C120.305 27.1534 118.967 27.4091 117.441 27.4091C115.439 27.4091 113.781 26.9744 112.468 26.1051C111.156 25.2358 110.325 23.9659 109.976 22.2955L112.839 21.5795C113.112 22.6364 113.628 23.429 114.386 23.9574C115.153 24.4858 116.155 24.75 117.39 24.75C118.797 24.75 119.913 24.4517 120.74 23.8551C121.575 23.25 121.993 22.5256 121.993 21.6818C121.993 21 121.754 20.429 121.277 19.9688C120.799 19.5 120.066 19.1506 119.078 18.9205L115.805 18.1534C114.007 17.7273 112.686 17.0668 111.842 16.1719C111.007 15.2685 110.589 14.1392 110.589 12.7841C110.589 11.6761 110.9 10.696 111.522 9.84375C112.153 8.99148 113.01 8.32244 114.092 7.83665C115.183 7.35085 116.419 7.10795 117.799 7.10795C119.743 7.10795 121.268 7.53409 122.376 8.38636C123.493 9.23864 124.285 10.3636 124.754 11.7614Z" fill="#CFFF11"/>
</svg>
